<svg xmlns="http://www.w3.org/2000/svg" width="20" height="20" viewBox="0 0 20 20">
  <defs>
    <style>
      .cls-1 {
        fill: #fff;
        fill-rule: evenodd;
        opacity: 0.4;
      }
    </style>
  </defs>
  <path id="Чербокс_выкл._copy_2" data-name="Чербокс выкл. copy 2" class="cls-1" d="M304.146,2379.01h11.708a4.165,4.165,0,0,1,4.16,4.16v11.65a4.167,4.167,0,0,1-4.16,4.17H304.146a4.167,4.167,0,0,1-4.161-4.17v-11.65A4.165,4.165,0,0,1,304.146,2379.01ZM304,2380h12a3,3,0,0,1,3,3v12a3,3,0,0,1-3,3H304a3,3,0,0,1-3-3v-12A3,3,0,0,1,304,2380Z" transform="translate(-300 -2379)"/>
</svg>
