<svg xmlns="http://www.w3.org/2000/svg" width="20" height="20" viewBox="0 0 20 20">
  <defs>
    <style>
      .cls-1 {
        fill: #fff;
        fill-rule: evenodd;
      }
    </style>
  </defs>
  <path id="Чербокс_выкл._copy" data-name="Чербокс выкл. copy" class="cls-1" d="M304.146,2339.01h11.708a4.165,4.165,0,0,1,4.16,4.16v11.65a4.167,4.167,0,0,1-4.16,4.17H304.146a4.167,4.167,0,0,1-4.161-4.17v-11.65A4.165,4.165,0,0,1,304.146,2339.01Zm0.454,1.89h10.8a2.7,2.7,0,0,1,2.7,2.7v10.8a2.7,2.7,0,0,1-2.7,2.7H304.6a2.7,2.7,0,0,1-2.7-2.7v-10.8A2.7,2.7,0,0,1,304.6,2340.9Z" transform="translate(-300 -2339)"/>
</svg>
