<svg xmlns="http://www.w3.org/2000/svg" width="20" height="20" viewBox="0 0 20 20">
  <defs>
    <style>
      .cls-1 {
        fill: #fff;
        fill-rule: evenodd;
      }
    </style>
  </defs>
  <path id="Чербокс_вкл._copy_2" data-name="Чербокс вкл.  copy 2" class="cls-1" d="M385.146,2339.01h11.708a4.165,4.165,0,0,1,4.16,4.16v11.65a4.167,4.167,0,0,1-4.16,4.17H385.146a4.167,4.167,0,0,1-4.161-4.17v-11.65A4.165,4.165,0,0,1,385.146,2339.01Zm0.454,1.89h10.8a2.7,2.7,0,0,1,2.7,2.7v10.8a2.7,2.7,0,0,1-2.7,2.7H385.6a2.7,2.7,0,0,1-2.7-2.7v-10.8A2.7,2.7,0,0,1,385.6,2340.9Zm11.769,5.06-5.93,5.93h0l-1.765,1.76h0l-1.765-1.76h0l-3.07-3.07,1.766-1.77,3.07,3.07,5.93-5.93Z" transform="translate(-381 -2339)"/>
</svg>
